{"asset":{"generator":"3D Builder","version":"2.0"},"scene":0,"scenes":[{"nodes":[0]}],"nodes":[{"children":[1,2,3,4]},{"mesh":0,"matrix":[39.3699951171875,0,0,0,0,-4.6932691475376487E-6,-39.369991302490234,0,0,39.369991302490234,-4.6932691475376487E-6,0,0,0.46920904517173767,-5.5934084031150633E-8,1]},{"mesh":1,"matrix":[39.3699951171875,0,0,0,0,-4.6932691475376487E-6,-39.369991302490234,0,0,39.369991302490234,-4.6932691475376487E-6,0,0,0.46920904517173767,-5.5934084031150633E-8,1]},{"mesh":2,"matrix":[39.3699951171875,0,0,0,0,-4.6932691475376487E-6,-39.369991302490234,0,0,39.369991302490234,-4.6932691475376487E-6,0,0,0.31051242351531982,-0.04293060302734375,1]},{"mesh":3,"matrix":[1.0000004768371582,0,0,0,0,-1.1920934639420011E-7,-1.0000003576278687,0,0,1.0000003576278687,-1.1920934639420011E-7,0,0,0,0,1]}],"meshes":[{"primitives":[{"attributes":{"POSITION":0,"TEXCOORD_0":1},"mode":4,"indices":2,"material":0}]},{"primitives":[{"attributes":{"POSITION":3,"TEXCOORD_0":4},"mode":4,"indices":5,"material":0}]},{"primitives":[{"attributes":{"POSITION":6,"TEXCOORD_0":7},"mode":4,"indices":8,"material":0}]},{"primitives":[{"attributes":{"POSITION":9,"TEXCOORD_0":20},"mode":4,"indices":31,"material":1},{"attributes":{"POSITION":10,"TEXCOORD_0":21},"mode":4,"indices":32,"material":0},{"attributes":{"POSITION":11,"TEXCOORD_0":22},"mode":4,"indices":33,"material":2},{"attributes":{"POSITION":12,"TEXCOORD_0":23},"mode":4,"indices":34,"material":3},{"attributes":{"POSITION":13,"TEXCOORD_0":24},"mode":4,"indices":35,"material":4},{"attributes":{"POSITION":14,"TEXCOORD_0":25},"mode":4,"indices":36,"material":5},{"attributes":{"POSITION":15,"TEXCOORD_0":26},"mode":4,"indices":37,"material":6},{"attributes":{"POSITION":16,"TEXCOORD_0":27},"mode":4,"indices":38,"material":7},{"attributes":{"POSITION":17,"TEXCOORD_0":28},"mode":4,"indices":39,"material":8},{"attributes":{"POSITION":18,"TEXCOORD_0":29},"mode":4,"indices":40,"material":9},{"attributes":{"POSITION":19,"TEXCOORD_0":30},"mode":4,"indices":41,"material":10}]}],"materials":[{"pbrMetallicRoughness":{"baseColorFactor":[1,1,1,1],"metallicFactor":1,"roughnessFactor":1,"baseColorTexture":{"index":0,"texCoord":0},"metallicRoughnessTexture":{"index":1,"texCoord":0}},"alphaMode":"OPAQUE"},{"pbrMetallicRoughness":{"baseColorFactor":[1,1,1,1],"metallicFactor":1,"roughnessFactor":1,"baseColorTexture":{"index":2,"texCoord":0},"metallicRoughnessTexture":{"index":3,"texCoord":0}},"alphaMode":"OPAQUE"},{"pbrMetallicRoughness":{"baseColorFactor":[1,1,1,1],"metallicFactor":1,"roughnessFactor":1,"baseColorTexture":{"index":4,"texCoord":0},"metallicRoughnessTexture":{"index":5,"texCoord":0}},"alphaMode":"OPAQUE"},{"pbrMetallicRoughness":{"baseColorFactor":[1,1,1,1],"metallicFactor":1,"roughnessFactor":1,"baseColorTexture":{"index":6,"texCoord":0},"metallicRoughnessTexture":{"index":7,"texCoord":0}},"alphaMode":"OPAQUE"},{"pbrMetallicRoughness":{"baseColorFactor":[1,1,1,1],"metallicFactor":1,"roughnessFactor":1,"baseColorTexture":{"index":8,"texCoord":0},"metallicRoughnessTexture":{"index":9,"texCoord":0}},"alphaMode":"OPAQUE"},{"pbrMetallicRoughness":{"baseColorFactor":[1,1,1,1],"metallicFactor":1,"roughnessFactor":1,"baseColorTexture":{"index":10,"texCoord":0},"metallicRoughnessTexture":{"index":11,"texCoord":0}},"alphaMode":"OPAQUE"},{"pbrMetallicRoughness":{"baseColorFactor":[1,1,1,1],"metallicFactor":1,"roughnessFactor":1,"baseColorTexture":{"index":12,"texCoord":0},"metallicRoughnessTexture":{"index":13,"texCoord":0}},"alphaMode":"OPAQUE"},{"pbrMetallicRoughness":{"baseColorFactor":[1,1,1,1],"metallicFactor":1,"roughnessFactor":1,"baseColorTexture":{"index":14,"texCoord":0},"metallicRoughnessTexture":{"index":15,"texCoord":0}},"alphaMode":"OPAQUE"},{"pbrMetallicRoughness":{"baseColorFactor":[1,1,1,1],"metallicFactor":1,"roughnessFactor":1,"baseColorTexture":{"index":16,"texCoord":0},"metallicRoughnessTexture":{"index":17,"texCoord":0}},"alphaMode":"OPAQUE"},{"pbrMetallicRoughness":{"baseColorFactor":[1,1,1,1],"metallicFactor":1,"roughnessFactor":1,"baseColorTexture":{"index":18,"texCoord":0},"metallicRoughnessTexture":{"index":19,"texCoord":0}},"alphaMode":"OPAQUE"},{"pbrMetallicRoughness":{"baseColorFactor":[1,1,1,1],"metallicFactor":1,"roughnessFactor":1,"baseColorTexture":{"index":20,"texCoord":0},"metallicRoughnessTexture":{"index":21,"texCoord":0}},"alphaMode":"OPAQUE"}],"textures":[{"source":0,"sampler":0},{"source":1,"sampler":0},{"source":2,"sampler":0},{"source":3,"sampler":0},{"source":4,"sampler":0},{"source":5,"sampler":0},{"source":6,"sampler":0},{"source":7,"sampler":0},{"source":8,"sampler":0},{"source":9,"sampler":0},{"source":10,"sampler":0},{"source":11,"sampler":0},{"source":12,"sampler":0},{"source":13,"sampler":0},{"source":14,"sampler":0},{"source":15,"sampler":0},{"source":16,"sampler":0},{"source":17,"sampler":0},{"source":18,"sampler":0},{"source":19,"sampler":0},{"source":20,"sampler":0},{"source":21,"sampler":0}],"images":[{"uri":"texture\\pich_baseColor.jpeg"},{"uri":"texture\\pich_metallicRoughness_10852638490067281019.png"},{"uri":"texture\\khafe_kon_2_baseColor.png"},{"uri":"texture\\khafe_kon_2_metallicRoughness_143254585871571099.png"},{"uri":"texture\\sight_2_baseColor.png"},{"uri":"texture\\sight_2_metallicRoughness_5607007607087937307.png"},{"uri":"texture\\body_1_baseColor.jpeg"},{"uri":"texture\\body_metallicRoughness_1_7529412896082548059.png"},{"uri":"texture\\blask_palastek_baseColor.jpeg"},{"uri":"texture\\blask_palastek_metallicRoughness_18276439708593773403.png"},{"uri":"texture\\magzane_1_baseColor.jpeg"},{"uri":"texture\\magzane_1_metallicRoughness_16594348115683765919.png"},{"uri":"texture\\dasteh_1_baseColor.jpeg"},{"uri":"texture\\dasteh_1_metallicRoughness_2479946743500233071.png"},{"uri":"texture\\ammo_3_baseColor.jpeg"},{"uri":"texture\\ammo_3_metallicRoughness_12979125607303385967.png"},{"uri":"texture\\black_metal_baseColor.jpeg"},{"uri":"texture\\black_metal_metallicRoughness_15456610051586557119.png"},{"uri":"texture\\lambert1_baseColor.jpeg"},{"uri":"texture\\lambert1_metallicRoughness_1046876113248283295.png"},{"uri":"texture\\sholder_2_baseColor.jpeg"},{"uri":"texture\\sholder_2_metallicRoughness_4475758783928661595.png"}],"samplers":[{"magFilter":9729,"wrapS":10497,"wrapT":10497}],"accessors":[{"bufferView":0,"byteOffset":0,"count":876,"componentType":5126,"type":"VEC3","min":[0.0010143400868400931,-0.00058515102136880159,0.0037254202179610729],"max":[0.0011922700796276331,0.00085144204786047339,0.0043975901789963245]},{"bufferView":1,"byteOffset":0,"count":876,"componentType":5126,"type":"VEC2"},{"bufferView":2,"byteOffset":0,"count":2952,"componentType":5125,"type":"SCALAR"},{"bufferView":3,"byteOffset":0,"count":930,"componentType":5126,"type":"VEC3","min":[-0.00078469200525432825,-0.00058515102136880159,0.0037188301794230938],"max":[-0.00060676602879539132,0.00084485107799991965,0.0044041802175343037]},{"bufferView":4,"byteOffset":0,"count":930,"componentType":5126,"type":"VEC2"},{"bufferView":5,"byteOffset":0,"count":3042,"componentType":5125,"type":"SCALAR"},{"bufferView":6,"byteOffset":0,"count":257,"componentType":5126,"type":"VEC3","min":[-0.0007460620254278183,-0.0063456902280449867,0.0090598603710532188],"max":[-0.00049589603440836072,-0.0057486305013298988,0.0096569210290908813]},{"bufferView":7,"byteOffset":0,"count":257,"componentType":5126,"type":"VEC2"},{"bufferView":8,"byteOffset":0,"count":786,"componentType":5125,"type":"SCALAR"},{"bufferView":9,"byteOffset":0,"count":4105,"componentType":5126,"type":"VEC3","min":[-0.033397998660802841,0.47634300589561462,0.49543401598930359],"max":[0.049230702221393585,0.97053402662277222,0.57272601127624512]},{"bufferView":9,"byteOffset":49260,"count":6238,"componentType":5126,"type":"VEC3","min":[-0.031867600977420807,-0.27526402473449707,0.30609101057052612],"max":[0.049310799688100815,0.36735600233078003,0.72712099552154541]},{"bufferView":9,"byteOffset":124116,"count":6168,"componentType":5126,"type":"VEC3","min":[-0.025263600051403046,-0.30609902739524841,0.64990508556365967],"max":[0.043773602694272995,-0.10366100817918777,0.77969902753829956]},{"bufferView":9,"byteOffset":198132,"count":12668,"componentType":5126,"type":"VEC3","min":[-0.025974800810217857,-0.38174101710319519,0.29273003339767456],"max":[0.041487600654363632,0.39875102043151855,0.66037005186080933]},{"bufferView":9,"byteOffset":350148,"count":9180,"componentType":5126,"type":"VEC3","min":[-0.024806400761008263,-0.877142071723938,0.32387101650238037],"max":[0.040573202073574066,0.14317600429058075,0.64472305774688721]},{"bufferView":9,"byteOffset":460308,"count":3199,"componentType":5126,"type":"VEC3","min":[-0.029175201430916786,-0.081055499613285065,0.05808500200510025],"max":[0.042757600545883179,0.15999101102352142,0.56486606597900391]},{"bufferView":9,"byteOffset":498696,"count":888,"componentType":5126,"type":"VEC3","min":[-0.023333201184868813,0.20957100391387939,0.26814302802085876],"max":[0.038287203758955,0.39875102043151855,0.49872401356697083]},{"bufferView":9,"byteOffset":509352,"count":217,"componentType":5126,"type":"VEC3","min":[-0.0020988001488149166,0.0858733057975769,0.55628103017807007],"max":[0.012000201269984245,0.15074500441551208,0.56486606597900391]},{"bufferView":9,"byteOffset":511956,"count":10134,"componentType":5126,"type":"VEC3","min":[-0.060216903686523438,-0.57787907123565674,0.47782003879547119],"max":[0.059880603104829788,0.57068705558776855,0.68075603246688843]},{"bufferView":9,"byteOffset":633564,"count":245,"componentType":5126,"type":"VEC3","min":[-0.011750800535082817,-0.23558901250362396,0.71838301420211792],"max":[0.024672800675034523,-0.23370900750160217,0.7725870013237]},{"bufferView":9,"byteOffset":636504,"count":2166,"componentType":5126,"type":"VEC3","min":[-0.025720801204442978,-0.85941308736801147,0.40764003992080688],"max":[0.055914800614118576,-0.30777600407600403,0.66047102212905884]},{"bufferView":10,"byteOffset":0,"count":4105,"componentType":5126,"type":"VEC2"},{"bufferView":10,"byteOffset":32840,"count":6238,"componentType":5126,"type":"VEC2"},{"bufferView":10,"byteOffset":82744,"count":6168,"componentType":5126,"type":"VEC2"},{"bufferView":10,"byteOffset":132088,"count":12668,"componentType":5126,"type":"VEC2"},{"bufferView":10,"byteOffset":233432,"count":9180,"componentType":5126,"type":"VEC2"},{"bufferView":10,"byteOffset":306872,"count":3199,"componentType":5126,"type":"VEC2"},{"bufferView":10,"byteOffset":332464,"count":888,"componentType":5126,"type":"VEC2"},{"bufferView":10,"byteOffset":339568,"count":217,"componentType":5126,"type":"VEC2"},{"bufferView":10,"byteOffset":341304,"count":10134,"componentType":5126,"type":"VEC2"},{"bufferView":10,"byteOffset":422376,"count":245,"componentType":5126,"type":"VEC2"},{"bufferView":10,"byteOffset":424336,"count":2166,"componentType":5126,"type":"VEC2"},{"bufferView":11,"byteOffset":0,"count":13494,"componentType":5125,"type":"SCALAR"},{"bufferView":11,"byteOffset":53976,"count":17580,"componentType":5125,"type":"SCALAR"},{"bufferView":11,"byteOffset":124296,"count":19077,"componentType":5125,"type":"SCALAR"},{"bufferView":11,"byteOffset":200604,"count":39975,"componentType":5125,"type":"SCALAR"},{"bufferView":11,"byteOffset":360504,"count":25245,"componentType":5125,"type":"SCALAR"},{"bufferView":11,"byteOffset":461484,"count":8631,"componentType":5125,"type":"SCALAR"},{"bufferView":11,"byteOffset":496008,"count":2739,"componentType":5125,"type":"SCALAR"},{"bufferView":11,"byteOffset":506964,"count":516,"componentType":5125,"type":"SCALAR"},{"bufferView":11,"byteOffset":509028,"count":25959,"componentType":5125,"type":"SCALAR"},{"bufferView":11,"byteOffset":612864,"count":606,"componentType":5125,"type":"SCALAR"},{"bufferView":11,"byteOffset":615288,"count":5730,"componentType":5125,"type":"SCALAR"}],"bufferViews":[{"buffer":0,"byteOffset":0,"byteLength":10512,"byteStride":12,"target":34962},{"buffer":0,"byteOffset":10512,"byteLength":7008,"byteStride":8,"target":34962},{"buffer":0,"byteOffset":17520,"byteLength":11808,"target":34963},{"buffer":0,"byteOffset":29328,"byteLength":11160,"byteStride":12,"target":34962},{"buffer":0,"byteOffset":40488,"byteLength":7440,"byteStride":8,"target":34962},{"buffer":0,"byteOffset":47928,"byteLength":12168,"target":34963},{"buffer":0,"byteOffset":60096,"byteLength":3084,"byteStride":12,"target":34962},{"buffer":0,"byteOffset":63180,"byteLength":2056,"byteStride":8,"target":34962},{"buffer":0,"byteOffset":65236,"byteLength":3144,"target":34963},{"buffer":0,"byteOffset":68380,"byteLength":662496,"byteStride":12,"target":34962},{"buffer":0,"byteOffset":730876,"byteLength":441664,"byteStride":8,"target":34962},{"buffer":0,"byteOffset":1172540,"byteLength":638208,"target":34963}],"buffers":[{"byteLength":1810748,"uri":"texture\\vector.bin"}]}